<svg version="1.1" id="icons_1_" xmlns="http://www.w3.org/2000/svg" x="0" y="0" viewBox="0 0 128 128" style="enable-background:new 0 0 128 128" xml:space="preserve"><style>.st0{display:none}.st1{display:inline}.st2{}</style><g id="row1_1_"><g id="_x36__2_"><path class="st2" d="M64 .3C28.7.3 0 28.8 0 64s28.7 63.7 64 63.7 64-28.5 64-63.7S99.3.3 64 .3zm0 121C32.2 121.3 6.4 95.7 6.4 64 6.4 32.3 32.2 6.7 64 6.7s57.6 25.7 57.6 57.3c0 31.7-25.8 57.3-57.6 57.3zm20.8-60.5H70.4V46.5c0-2.6-2.2-4.8-4.8-4.8-2.7 0-4.8 2.1-4.8 4.8v14.3H46.4c-2.7 0-4.8 2.1-4.8 4.8 0 2.6 2.1 4.8 4.8 4.8h14.4v14.3c0 2.6 2.1 4.8 4.8 4.8 2.6 0 4.8-2.1 4.8-4.8V70.4h14.4c2.6 0 4.8-2.1 4.8-4.8 0-2.6-2.1-4.8-4.8-4.8z" id="plus_transparent"/></g></g></svg>